<mxfile host="app.diagrams.net" modified="2021-06-10T08:36:03.821Z" agent="5.0 (Windows NT 10.0; Win64; x64) AppleWebKit/537.36 (KHTML, like Gecko) Chrome/89.0.4389.114 Safari/537.36" etag="DkDI2yyu4bEv_HzKg11E" version="14.7.7" type="github">
  <diagram id="BkQCQEspaN5qcI93UJqM" name="第 1 页">
    <mxGraphModel dx="981" dy="526" grid="1" gridSize="10" guides="1" tooltips="1" connect="1" arrows="1" fold="1" page="1" pageScale="1" pageWidth="827" pageHeight="1169" math="0" shadow="0">
      <root>
        <mxCell id="0" />
        <mxCell id="1" parent="0" />
        <mxCell id="R6syby1WG1L8B_Byt5HL-3" value="" style="edgeStyle=orthogonalEdgeStyle;rounded=0;orthogonalLoop=1;jettySize=auto;html=1;fontSize=18;fillColor=#dae8fc;strokeColor=#6c8ebf;comic=0;jiggle=2;" edge="1" parent="1" source="R6syby1WG1L8B_Byt5HL-1" target="R6syby1WG1L8B_Byt5HL-2">
          <mxGeometry relative="1" as="geometry" />
        </mxCell>
        <mxCell id="R6syby1WG1L8B_Byt5HL-1" value="开始" style="strokeWidth=2;html=1;shape=mxgraph.flowchart.start_1;whiteSpace=wrap;fontSize=18;fillColor=#ffe6cc;strokeColor=#d79b00;comic=1;jiggle=1;" vertex="1" parent="1">
          <mxGeometry x="350" y="230" width="100" height="60" as="geometry" />
        </mxCell>
        <mxCell id="R6syby1WG1L8B_Byt5HL-9" style="edgeStyle=orthogonalEdgeStyle;rounded=0;comic=0;jiggle=2;orthogonalLoop=1;jettySize=auto;html=1;exitX=0.5;exitY=1;exitDx=0;exitDy=0;fontSize=18;strokeColor=#6c8ebf;fillColor=#dae8fc;" edge="1" parent="1" source="R6syby1WG1L8B_Byt5HL-2" target="R6syby1WG1L8B_Byt5HL-8">
          <mxGeometry relative="1" as="geometry" />
        </mxCell>
        <mxCell id="R6syby1WG1L8B_Byt5HL-2" value="处理" style="whiteSpace=wrap;html=1;strokeWidth=2;fontSize=18;fillColor=#dae8fc;strokeColor=#6c8ebf;comic=1;jiggle=1;" vertex="1" parent="1">
          <mxGeometry x="340" y="340" width="120" height="60" as="geometry" />
        </mxCell>
        <mxCell id="R6syby1WG1L8B_Byt5HL-8" value="" style="strokeWidth=2;html=1;shape=mxgraph.flowchart.terminator;whiteSpace=wrap;comic=1;jiggle=1;fontSize=18;fillColor=#dae8fc;strokeColor=#6c8ebf;" vertex="1" parent="1">
          <mxGeometry x="350" y="480" width="100" height="60" as="geometry" />
        </mxCell>
      </root>
    </mxGraphModel>
  </diagram>
</mxfile>
